<svg id="Layer_1" data-name="Layer 1" xmlns="http://www.w3.org/2000/svg" viewBox="0 0 5665.5 521.36"><defs><style>.cls-1{fill:#ed1b2f;}</style></defs><path d="M2528.5,1.06c-.3.7-.4,118.1-.3,260.8l.3,259.5h9V.36l-4.3-.3C2530.4-.14,2528.8.16,2528.5,1.06Z"/><path class="cls-1" d="M650,8.56c-66.5,4.6-108.4,17.8-140.6,44.5-28.4,23.5-43,61-39.5,101.5,4.4,49.5,31.2,83.9,81.3,104.7,42.1,17.4,108.3,24.4,171.8,18,55.1-5.5,96.7-21.2,123.5-46.6,18.7-17.7,29.1-37,34.1-63.3,2.3-11.9,2.3-35.7.1-48.2C868.9,53.86,809.5,16,708,8.86,694.8,8,661,7.76,650,8.56Zm50,49.8c20.5,3.1,33.5,9,45.1,20.5,6,5.9,8.5,9.3,11.7,16,6.4,13.2,8.3,22.4,8.9,43.5,1,34.1-4.6,53.9-19.9,70-13.4,14.1-28.7,20.2-57,22.5-24.2,2-48.5-1.4-64.3-9-21.2-10.2-32.7-27.4-37.2-55.5-2.2-14-1.3-42.5,1.7-54.5,3.4-14,9-24.3,17.9-33,11.3-11.3,24.8-17.5,44.5-20.5C662.7,56.56,688.5,56.56,700,58.36Z"/><path class="cls-1" d="M.2,35.06l.3,17.2,18.6,2.2c11.2,1.3,19.9,2.9,21.8,3.8a21.41,21.41,0,0,1,5.9,5.8l2.7,4.2.3,73c.2,50.7-.1,74.5-.8,77.5-2.7,10.6-7.4,13.3-28,15.6-8,.9-16,1.8-17.7,2.2l-3.3.5v33.8H202v-33.8l-3.7-.6c-2.1-.3-10.3-1.3-18.2-2.1-15.6-1.8-18.4-2.5-22-5.8-5.5-5.1-6.1-8.1-6.1-34.5v-24.2H308.3l-.5,23.7c-.4,21.2-.7,24.3-2.5,28.4-2,4.5-5.8,8.1-9.8,9.2-1.1.3-8.5,1.3-16.5,2.2s-16.2,1.8-18.2,2.1l-3.8.6v34.8H459V236l-4.2-.6c-2.4-.3-10.4-1.2-17.8-2s-14.9-2-16.7-2.6c-4.1-1.3-8.9-6.8-10.3-11.6-.8-2.7-1-25.9-.8-76.8l.3-73L412,65c4-7.1,6.6-8.1,27.8-10.5l18.7-2.1.3-17.3.2-17.2H257v33.8l3.8.6c2,.3,9.6,1.3,16.7,2.1,15.9,1.9,19.6,2.8,23.4,6.1,5.7,4.8,6.6,9.3,6.6,34.9v23l-77.7.3-77.8.2V95.16c.1-36.9.3-37.1,30.9-40.7l18.6-2.2.3-17.2.2-17.2H0Z"/><path class="cls-1" d="M894.2,35.06l.3,17.3,18.3,2.2c21.1,2.5,24.4,3.7,28.2,10.4l2.5,4.4v150l-2.2,4.1c-3.8,7.1-7.2,8.4-27.7,11.1-10,1.2-18.4,2.3-18.8,2.3s-.8,7.6-.8,17v17h162v-33.7l-3.7-.6c-2.1-.3-10.5-1.3-18.8-2.3-10.7-1.1-16-2.2-18.6-3.6-4.5-2.5-8.6-8.8-9.4-14.2-.3-2.2-.5-32.9-.3-68l.3-63.9,67.2,88.5c37,48.7,68.8,89.9,70.8,91.6,7,6.2,7.1,6.2,79.2,6.2H1288v-99.4c0-103.3,0-102.8,4.2-108.9,3.3-4.7,7.2-5.9,26.8-8.1l18.5-2.2.3-17.2.2-17.2H1176v17c0,9.3.3,17,.8,17s9.1,1.1,19.4,2.4C1217.4,57,1220.1,58,1224,65l2.5,4.4.3,67.5c.1,39.4-.1,67-.6,66.5s-29.2-38.4-63.7-84C1085,17,1090,23.26,1083.6,20.26l-5.1-2.4H894Z"/><path class="cls-1" d="M1359,34.86c0,9.3.1,17,.3,17.1s7.7.9,16.9,1.9c19.2,2.1,22.8,3.4,27.3,9.8l3,4.4.3,75.1.2,75.1-2.5,5c-1.4,2.8-3.7,5.9-5.1,6.9-2.6,1.9-11.2,3.6-29.6,5.7l-10.8,1.3V271l138.8-.4c150.1-.4,144.9-.2,171.2-5.8,56-12.1,92.7-45.6,102.5-93.7,8.7-43-1.7-83.3-28.6-110.2-23.5-23.4-59.9-37.9-105.9-42-7.1-.6-61.9-1-144.7-1H1359ZM1590.9,67c38.6,3.1,56.3,15.3,64.3,44.4,2,7.2,2.2,10.5,2.2,32s-.1,24.9-2.1,32.7c-7.1,27.8-24.2,41-57.8,44.8-4.9.5-27.6,1-50.2,1H1506v-77.3c0-42.6.3-77.7.7-78C1507.8,65.46,1576.5,65.76,1590.9,67Z"/><path class="cls-1" d="M1839.2,35.06l.3,17.3,23.2,2.6c25.7,2.9,28.2,3.7,31.6,10.2,1.7,3.3,1.8,4.4.8,7.6-1.3,4.4-89.9,149.1-94,153.5-4.3,4.7-9.4,6.3-26.1,8-8.5.9-16.5,1.9-17.7,2.2-2.3.4-2.3.6-2.3,17.4v17h162v-34.6l-15.2-1.8c-17.6-2-23.3-4-26-9.4-2.5-5.1-1.6-7.3,10.9-27l3.4-5.2H2044l7,10.5c9.7,14.8,10.5,18.9,4.7,24.3-3.5,3.3-9,4.7-26.4,6.8l-15.3,1.8v34.6h219v-17.5c0-9.6-.2-17.5-.5-17.5s-8.7-.9-18.7-2.1c-21-2.3-24.5-3.6-31.1-10.9-2.4-2.6-31.9-47-65.6-98.7-64.2-98.3-67.6-102.9-75.8-105.2-2.5-.7-37.3-1.1-103.1-1.1H1839ZM1990,109c12.9,20.4,23.6,37.7,23.8,38.5.3,1.2-6.5,1.4-47.7,1.4-26.5,0-48.1-.3-48.1-.6,0-1,47.3-76.4,47.9-76.4C1966.2,71.86,1977.1,88.56,1990,109Z"/><path d="M2843.2,134.06l.3,115.3h55l.3-46.8.2-46.7h91l.2,46.7.3,46.8h55l.3-115.3.2-115.2h-56v88h-91v-88h-56Z"/><path d="M3142.5,78.86c-10.9,1.5-18.8,4-29.5,9.2-9.1,4.5-11.7,6.4-19.6,14.3s-9.8,10.4-14.2,19.5c-2.8,5.8-5.8,13.2-6.6,16.5-2.5,10.1-3.9,24.4-3.2,33.9,3,39.9,23.2,66.2,59.3,77.3,8.2,2.5,10.1,2.7,27.8,2.7,15.7.1,20.2-.2,26-1.8,32.1-8.7,53.3-30.8,60-62.6a116.52,116.52,0,0,0-1.1-49.5c-.8-3.3-3.8-10.7-6.6-16.5-4.4-9.2-6.1-11.5-14.2-19.5-11-10.9-22.1-17.2-37.4-21.1C3172.4,78.46,3152.9,77.36,3142.5,78.86Zm27.7,42.6c13.1,4.2,21.2,18.6,22.4,39.9.9,17-3,32.2-10.5,40.8-12.4,14.1-41.7,12.4-52.5-3.1-10.3-14.9-11.3-45.1-2.1-63.2C3134.6,122,3152.6,116,3170.2,121.46Z"/><path d="M3957.6,78.86c-29.6,4.7-51.1,20-62.8,44.7-6.8,14.5-8.2,21.2-8.2,41.8,0,21.1,1.5,28.2,8.8,43,8.1,16.2,19.5,27.8,35,35.5,14,6.9,21.4,8.4,42.1,8.4,15.6.1,19.1-.2,26-2.1,26.5-7.3,45.3-23.4,54-46.6l2.5-6.7h-48.8l-2,3.2c-3.2,5.1-7.2,8.4-13.7,11.5-5.5,2.6-7,2.8-17.5,2.8-10.3,0-12.1-.3-17.1-2.6a40.87,40.87,0,0,1-9.4-6.4c-4.1-4.1-8.9-13.4-10.4-20.3l-.9-4.2h124l-.6-12.3c-.9-15.4-2.9-26.7-6.7-37-9.5-26.2-29.5-44.2-56.2-50.8C3986.2,78.46,3966.5,77.46,3957.6,78.86Zm22.6,38.1a33.55,33.55,0,0,1,18.2,10c4,4.4,8.1,12.3,9.2,17.7l.7,3.2h-72.5l.6-3.3c1.1-5.6,6.2-15.2,10.1-19.2C3954.3,117.66,3967.6,114.26,3980.2,117Z"/><path d="M4236.3,79.76a64,64,0,0,0-10,3.5c-5.8,2.9-15.2,10.8-18.9,15.7l-3.9,5-.5-10.8-.5-10.8-24.7-.3-24.8-.2v168h50.9l.3-51.8c.3-47.5.5-52.1,2.2-56.7,4.4-11.7,12.3-18.2,23.6-19.2,11.6-1.1,20.5,3.2,24.4,11.6,2,4.5,2.1,6.1,2.6,60.1l.5,55.5h51l.5-53c.5-48.2.7-53.4,2.3-57,4.9-10.9,12.2-16.4,23.1-17.2,11.3-.9,19.5,2.9,23.6,11.2l2.5,5,.5,55.5.5,55.5,25.3.3,25.2.2v-60.2c0-67.7-.1-68.5-7-82.4a51.65,51.65,0,0,0-33.1-27c-24.7-6.6-49.8,1.7-65.9,21.8l-4.4,5.6-2.7-4.7c-3.6-6.2-13.4-15.2-20.2-18.6C4266.2,78.26,4248.8,76.36,4236.3,79.76Z"/><path d="M4508.5,78.86c-21.3,2.8-37.4,10.8-51.3,25.4a79.76,79.76,0,0,0-19.4,36.1c-2.9,11.8-3.2,38.1-.5,48.9,4.2,16.6,10.8,28.7,21.6,39.6,12.3,12.4,27.7,20,46.3,23,12.6,2,35.2.8,46.3-2.5,15-4.4,23.6-9.6,34.5-20.5s16-19.3,20.7-34.5c2.6-8.5,2.7-10,2.7-28.5,0-22.4-1.3-29.2-8.4-43.5C4585.2,90.46,4549.2,73.56,4508.5,78.86ZM4534,121c5,1.2,12.3,6.1,15.5,10.3a52.44,52.44,0,0,1,5.3,10.4c2.1,5.7,2.6,8.8,3,20.7.7,25.7-5.1,39.5-19.8,46.4-4.8,2.3-6.8,2.6-15.5,2.6-11.4-.1-16.5-1.8-23.2-7.8-16.1-14.6-16.6-59.3-.8-75.2C4506.5,120.36,4520.2,117.46,4534,121Z"/><path d="M4866.8,78.86c-16.2,2.6-31.9,9.2-42.5,18-12.4,10.3-22.1,26.3-26.5,43.5-1.9,7.7-2.3,11.4-2.2,26,.1,20,1.7,27.6,8.8,42,8.1,16.2,19.5,27.8,35,35.5,12,5.9,21.6,8.1,37.9,8.7,15.8.6,25.1-.5,37.4-4.7,22-7.3,40.2-24.8,47.2-45.4l2-5.6h-48.4l-3.5,4.7c-7.2,9.7-17.5,13.9-32.7,13.1-10.4-.5-17.8-3.4-23.8-9.3-4.1-4.1-8.9-13.4-10.4-20.3l-.9-4.2H4968v-5.3c0-16.2-3.3-35.3-8.4-47.7-9.5-23.6-29.6-40.9-54.9-47.1C4895.3,78.46,4875.5,77.46,4866.8,78.86Zm22.4,38.1a35,35,0,0,1,18,9.6c3.8,3.9,8.3,12.6,9.4,18.1l.7,3.2h-72.5l.6-3.3c1.1-5.6,6.2-15.2,10.1-19.2C4863.3,117.66,4876.6,114.26,4889.2,117Z"/><path d="M5296,78.46c-18.6,2.7-29.6,6.3-40.4,13.4-17,11.1-28.1,26.7-33.7,47.5-3.1,11.2-3.4,39.3-.5,50.5,8.6,33.6,31.4,55.2,65.1,61.5,12.3,2.3,35.6,1.6,47-1.4,31-8.1,52.9-32.1,59-64.6,2.6-13.4,1.7-35.8-1.9-47.8-9.8-33-32.9-52.9-67.6-58.2C5314.3,78,5302.1,77.66,5296,78.46Zm22,42.5c9.4,2.3,17,10.3,21.1,22,3,8.7,3.8,30.2,1.5,40.2-2.9,12.6-9.5,21.6-18.9,25.8-7.2,3.3-22.9,3.4-29.8.3-14-6.5-20.9-20.7-20.9-43.3,0-17.7,3.8-29.8,11.7-37.7S5304.3,117.56,5318,121Z"/><path d="M3251,83.46c0,1.4,20.9,65.9,46.2,142.2l8,24.2,26.6-.2,26.7-.3,8.3-28c4.5-15.4,11.3-39.2,15.1-52.8l6.8-24.8,2.3,8.8c1.2,4.8,8.1,28.5,15.1,52.6s12.9,44,12.9,44.2,11.9.5,26.5.5c24.2,0,26.5-.2,27.3-1.8.7-1.3,50.2-152.6,53.7-164l.6-2.2h-27c-24.7,0-27.1.1-27.9,1.7-.8,1.4-20.6,70.2-28.9,100.3l-1.5,5.5-6.4-24.5c-3.5-13.5-10.1-37.6-14.6-53.5l-8.3-29-23.6-.3-23.6-.2-9.6,33.7c-5.3,18.6-11.7,42.1-14.2,52.3s-4.8,19.2-5.1,20-3-7.3-5.9-18-9.8-34.8-15.3-53.5l-9.8-34-27.2-.3C3253.5,81.86,3251,82,3251,83.46Z"/><path d="M3605,82.86c0,1.3,53,163,54.1,165.2.9,1.6,3.2,1.8,27.3,1.8h26.3l10.6-36.3c5.9-19.9,12.7-43.7,15.1-52.7s4.6-15.8,4.9-15,4,13.4,8.1,28,10.9,37.5,14.9,51l7.2,24.5,26.7.3,26.6.2,4.6-13.7C3845,195,3881,83.66,3881,82.76c0-.6-10-.8-27.2-.7l-27.2.3-8.3,28.5c-4.6,15.7-11.4,39.7-15.2,53.5s-7.2,24.3-7.5,23.5-3-11.4-6.1-23.5-9.4-35.6-14.2-52.3l-8.6-30.2-23.6.2-23.6.3-8.3,29c-4.6,15.9-11.2,40-14.6,53.5l-6.4,24.5-1.5-5.5c-6.4-22.8-26.1-91.8-27.5-96.1l-1.7-5.4-27.2-.3C3614.6,82,3605,82.16,3605,82.86Z"/><path d="M4613.4,83.56c.3,1,13.8,38.7,29.9,83.8l29.2,82h60.7l29.4-82.5c16.2-45.3,29.4-83,29.4-83.7,0-1-5.5-1.3-25.9-1.3h-25.8l-4.5,13c-2.5,7.1-10.6,34.3-17.9,60.4s-13.7,47.2-14,46.8-6.3-21-13.3-45.8-14.8-51.5-17.4-59.5l-4.9-14.4-27.7-.3C4614.5,81.86,4612.9,82,4613.4,83.56Z"/><path d="M5038.8,82.36c-.2.3,10.9,32.8,24.9,72.3s26.3,75.3,27.5,79.7c2.8,10.8,2.8,20.6.1,26.7-3.9,8.6-12,11.8-29.9,11.8H5052v19.4c0,16.8.2,19.5,1.6,20,2.5,1,30.2.7,39-.4,28.9-3.6,45.9-16,57.4-41.6,2.5-5.5,64-180.2,65.8-186.7.4-1.6-1.3-1.7-25.6-1.7-23.9,0-26.2.2-27,1.7-2.6,5-22.6,76.3-31.2,111.3l-3.3,13.4-5.9-22.9c-5.9-23.3-20-73.3-26.1-92.5l-3.3-10.5-27-.3C5051.5,82,5039.1,82.06,5038.8,82.36Z"/><path d="M5418.4,83.16c-.3.8-.3,28.6-.2,61.8.4,66.9.3,65.1,7.2,79.4,5.8,11.8,16.4,21,29.6,25.7,5.6,1.9,8.5,2.2,21,2.3s15.4-.3,21.2-2.3a65.44,65.44,0,0,0,25-16.4l5.7-6,.3,10.9.3,10.8,24.8.3,24.7.2v-168h-50.9l-.3,51.7c-.4,59.5-.2,57.8-9.2,66.9-6.2,6.1-12.1,8.4-22,8.4-9,0-13.8-1.4-18-5.1-7.3-6.4-7-4.1-7.6-65.9l-.5-55.5-25.3-.3C5423.6,81.86,5418.9,82.06,5418.4,83.16Z"/><path d="M5608,221.36v28.5l28.8-.2,28.7-.3v-56l-28.7-.3-28.8-.2Z"/><path d="M1332.5,374.56c-13.2,4-19.5,13.3-21.1,30.9l-.7,7.4H1291v14h20v74h20v-74h35v-14h-35V409c0-7.2,1.9-14.4,4.6-17.2,3.6-3.7,10.7-5.3,20.4-4.6,4.3.4,8.4.7,9.1.9,1.1.2,1.5-1.4,1.7-6.8l.3-7.1-3.2-.7C1357.9,372.26,1337.7,373,1332.5,374.56Z"/><path d="M493.8,374.66l-27.8.2v126h20v-47.8l27.3-.5c21.5-.4,28.4-.8,33.2-2.2,13.7-3.9,23.2-11.4,28.3-22.3,2.4-5,2.7-7,2.7-15.7,0-8.1-.5-10.9-2.2-14.7-5-11-15.6-18.3-30.8-21.2C534.2,374.56,527.4,374.26,493.8,374.66Zm47.3,17c9.8,3.2,14.9,10.3,14.9,20.5,0,8.2-1.8,13.5-6,17.7-6.2,6.2-11.1,7.2-39.2,7.7l-24.8.6v-48.4l25.8.4C527.7,390.36,538.9,391,541.1,391.66Z"/><path d="M9,382.36v7.5H63v111H83v-111h53v-15H9Z"/><path d="M160,437.86V501l9.8-.3,9.7-.3.6-28.5c.3-15.7,1-29.9,1.6-31.5,3.5-10.3,9.5-17.3,18.2-21.4,4.9-2.3,6.9-2.6,16.1-2.6,11.3,0,14.6,1,20.3,6.4,7.5,6.9,8.7,13.9,8.7,49.8V501l9.8-.3,9.7-.3.3-25c.4-37.6-1.3-48.6-9.5-59.3-10.9-14.4-40.4-18.7-60.2-8.9a49.72,49.72,0,0,0-9.8,7.1l-5.3,4.8v-44.2H160Z"/><path d="M1440,437.86v63.2l37.8-.4c35-.4,38.3-.6,45.7-2.6,13.5-3.7,21.8-8.3,30-16.5,11.9-12,16.4-24.3,16.5-44.8,0-26-10.2-44.2-30-53.7-15.5-7.3-16.7-7.5-60.7-7.9l-39.3-.4Zm79.2-45.2c9.5,2.6,12.9,4.3,18.3,9.3,7.3,6.7,11.5,19.4,11.5,34.9,0,20.4-7,34.5-20.8,41.8-10,5.3-16.1,6.3-42.9,6.9l-24.3.5v-96.4l25.3.5C1507.7,390.56,1512.7,390.86,1519.2,392.66Z"/><path d="M2872.8,395.76a41.64,41.64,0,0,0-19.6,12.6c-9.2,10.1-13.5,22.4-13.5,39,0,21.3,8.4,38.2,23.4,47.2,13.7,8.2,34.7,8.4,49.1.6,5.8-3.1,13.8-11.3,16.7-17.1,2.6-5.1,5.5-15.8,4.6-17.2-.3-.6-3.9-1-8-1h-7.4l-1.2,4.2c-3.3,12.5-11.3,19.8-23.5,21.8-10.5,1.7-21.9-2-28-9.2-7.1-8.4-10.4-23.2-8.5-37.3,2.8-19.7,13.6-30.7,30.6-30.9,13.5-.1,22.9,5.6,27.5,16.7l2.4,5.7h15.9l-.6-3.5c-1.9-11.4-12.1-24.1-24-29.6-6.6-3-8.1-3.3-18.7-3.6C2880.8,393.86,2877.4,394.26,2872.8,395.76Z"/><path d="M4252.5,395.26c-10,3.2-17,8.9-20.3,16.5-2.6,6-2.1,15.8,1.1,22.4,4.9,10,12.2,14.1,32.8,18.8,15.5,3.5,22,6.1,25.5,10.2,2.3,2.7,2.6,3.8,2.2,8.4-.6,6.4-2.9,10-8.4,12.8-3.2,1.6-5.9,2-14.9,2-9.6,0-11.6-.3-15.8-2.4a18.51,18.51,0,0,1-10.5-14.8l-.7-4.8h-16l.4,5c.7,11.1,7.5,21.6,17,26.4,6.3,3.3,15.7,5.1,26.1,5.1,15,0,24.2-3.2,32.2-11.1,7.2-7.2,9.8-19,6.3-28.8-4-11.4-12.9-16.7-36.7-22.1-15.8-3.6-21.1-5.8-23.8-10.2-3.8-6.2-1.8-14.7,4.3-18.3,2.7-1.7,5.1-2,14.7-2,9.8,0,12,.3,15,2.1a18.11,18.11,0,0,1,8.5,12.4l.7,4h16.1l-.6-5c-1.6-13.5-11.3-23.6-25.9-27C4275.8,393.56,4257.3,393.76,4252.5,395.26Z"/><path d="M4362.8,395.76c-8.1,2.6-13.5,6.1-19.5,12.3-9.5,10.1-13.6,21.7-13.7,38.8-.1,16.8,4.1,29.2,13.3,39.2s20.6,14.8,35.1,14.8c22.7,0,39.8-13,44.6-33.9.7-3.1,1-5.9.5-6.4s-4.1-.7-8.2-.5l-7.3.3-.8,3.8a28.68,28.68,0,0,1-14.3,19c-8.1,4.1-21.1,4-29.2-.1-15.8-8.2-22.1-36.6-12.7-57.1,6-13.1,18.8-19.8,32.9-17.2,11.1,2.1,17.7,7.2,21.6,16.7l2.3,5.4h15.8l-.7-3.8c-2.6-14.3-15.7-27.8-31-31.8C4384.3,393.26,4369.7,393.56,4362.8,395.76Z"/><path d="M5141,395.76c-11.5,3.7-18.7,8.9-24.8,18.1-6.9,10.3-8.7,17.2-8.7,33.5s1.8,23.2,8.6,33.4c9.4,14.1,23.8,20.8,42.5,19.9,7.3-.3,10.1-.9,15.6-3.5a45.52,45.52,0,0,0,10.6-7.1l4-4,1.2,6.4,1.2,6.4H5204l-.2-27.3-.3-27.2h-45l-.3,6.7-.3,6.8H5189l-.7,3.2c-3.2,17.5-19.7,28.2-37.9,24.8-16.8-3.2-26.4-17.1-26.4-38.4,0-24.5,11.9-39,32-39,14.4,0,22.2,4.4,27.9,15.7l3.3,6.8,7.7-.3,7.6-.3-.3-3c-.1-1.7-1.8-6.2-3.7-10.1a40.48,40.48,0,0,0-27-21.8C5163.4,393.26,5148.1,393.46,5141,395.76Z"/><path d="M2959,447.26v51.6h16v-42.1l18.4.3c16.9.3,18.7.5,21.3,2.4,4.5,3.3,5.6,6.9,6.4,20.1.4,6.8,1.3,13.9,1.9,15.8l1.2,3.5h8.5c7.7,0,8.4-.2,7.8-1.8-1.8-4.5-2.5-8.2-3-17.6-1.2-18.6-3.2-24-10.8-28.7l-2.9-1.7,3-1.6c4.2-2.2,9.7-8.8,11-13.5a41,41,0,0,0,1.2-10.3c0-11.6-6.3-20.3-18-25-5.1-2.1-7.4-2.3-33.7-2.6l-28.3-.3Zm52.2-36.4c10.7,3,14.8,15.7,8.3,25.6-3.4,5.2-8.2,6.4-27.2,6.4H2975v-33h16.3C3000.2,409.86,3009.2,410.36,3011.2,410.86Z"/><path d="M3066,447.36v51.5h74.1l-.3-7.3-.3-7.2-28.2-.3-28.3-.2v-31l25.8-.2,25.7-.3v-14l-25.7-.3-25.8-.2v-27h57v-15h-74Z"/><path d="M3195.3,397.56c-.6,1.6-37.8,97.1-39,100-.4,1,1.6,1.3,8,1.3h8.4l5-13.3,5-13.2,22.5-.3,22.5-.2,5.1,13.2,5,13.3,8.7.3c5.2.2,8.6-.1,8.3-.7-.1-.5-9.3-23.7-20.3-51.5l-20-50.6h-9.3C3197.3,395.86,3195.8,396.16,3195.3,397.56Zm18.9,38.6c4.4,11.5,7.8,21.1,7.5,21.3s-7.9.3-17,.2l-16.5-.3,7.9-21c4.4-11.6,8.2-21.7,8.5-22.5.6-1.3.7-1.3,1.1,0C3206,414.66,3209.8,424.76,3214.2,436.16Z"/><path d="M3254,403.36v7.5h34v88h16v-88h34v-15h-84Z"/><path d="M3357,447.36v51.5h73v-15h-57v-31h52v-15h-52v-27l28.8-.2,28.7-.3.3-7.3.3-7.2H3357Z"/><path d="M3796.2,403.06l.3,7.3,16.8.3,16.7.2v88h17v-88l16.8-.2,16.7-.3.3-7.3.3-7.2h-85.2Z"/><path d="M3902,447.26v51.6h16v-42.1l18.4.3c16.9.3,18.7.5,21.3,2.4,4.4,3.3,5.5,6.8,6.4,20.4.4,6.9,1.3,14,1.9,15.7l1.2,3.3h8.4c4.6,0,8.4-.2,8.4-.4a25.44,25.44,0,0,0-1.4-3.7c-.8-1.9-1.7-8.4-2.1-14.4-1.1-19.5-3.1-24.9-10.7-29.5l-2.8-1.7,3.9-2.6c7.8-5.2,11.1-11.9,11.1-22.7,0-11.8-6.2-20.5-18-25.2-5.1-2.1-7.4-2.3-33.7-2.6l-28.3-.3Zm52.2-36.4c5.9,1.7,9.5,5.3,10.7,10.8,1.9,8.8-1.2,16.1-8.2,19.3-3.6,1.6-6.7,1.9-21.4,1.9H3918v-33h16.3C3943.2,409.86,3952.2,410.36,3954.2,410.86Z"/><path d="M4019.7,446.66c-10.8,27.9-19.7,51.1-19.7,51.5s3.7.7,8.2.5l8.3-.3,4.9-13.3,4.9-13.2,22.6.2,22.5.3,5,13.2,5,13.3h8.3c4.6,0,8.3-.4,8.3-.9s-9-23.7-20.1-51.5l-20.1-50.6h-18.3Zm38.2-9.8,7.8,20.5-16.5.3c-9.1.1-16.7,0-16.9-.2s3.3-10.4,7.9-22.5c5.9-15.7,8.5-21.6,9.1-20.3C4049.7,415.56,4053.5,425.56,4057.9,436.86Z"/><path d="M4118,447.36v51.5h16.2l-.4-39.9c-.2-22-.2-39.8,0-39.7s4.4,7.1,9.5,15.4,16.2,26,24.7,39.6l15.5,24.5h9.3l9.2.1v-103h-16.3l.5,40.2c.4,24.2.2,39.7-.3,38.8-6-10-24.3-39.3-35.4-56.8l-14-22.1-9.2-.1H4118Z"/><path d="M4449,447.36v51.5h73v-15h-57v-31h52v-15h-52v-27l28.8-.2,28.7-.3.3-7.3.3-7.2H4449Z"/><path d="M4549,447.36v51.5h15v-80.3l8.3,13.4c4.5,7.4,15.9,25.4,25.2,40.1l17,26.8H4633v-103h-16.1l.3,40.3.3,40.3-9.1-15c-5-8.3-16.4-26.4-25.2-40.1l-16-25-9.1-.3-9.1-.3Z"/><path d="M4661,447.36v51.5h22.3c15.4,0,24.3-.5,29-1.5,17.4-3.7,30.6-16.4,35.2-34.2,1.9-7.4,1.9-24.2,0-31.6-4.5-17.5-17.3-30.1-34.6-34.2-4.7-1.1-12.4-1.5-29.1-1.5H4661Zm44.5-36.4c11.7,2.2,18.4,7.2,23.2,17.4,2.6,5.6,2.8,6.8,2.8,19s-.2,13.4-2.8,19c-6.6,14-16.3,18.4-40.9,18.5H4678v-75h10.8A117.62,117.62,0,0,1,4705.5,411Z"/><path d="M4928.3,397.56c-.6,1.6-37.8,97.1-39,100-.4,1,1.6,1.3,8,1.3h8.4l5-13.3,5-13.2,22.5-.3,22.5-.2,5,13.2,5.1,13.3,8.7.3c5.2.2,8.6-.1,8.3-.7-.1-.5-9.3-23.7-20.3-51.5l-20-50.6h-9.3C4930.3,395.86,4928.8,396.16,4928.3,397.56Zm18.9,38.6c4.4,11.5,7.8,21.1,7.5,21.3s-7.9.3-17,.2l-16.5-.3,7.9-21c4.4-11.6,8.2-21.7,8.5-22.5.6-1.3.7-1.3,1.1,0C4939,414.66,4942.8,424.76,4947.2,436.16Z"/><path d="M5001,428.06c0,35.5.7,43.2,4.7,52,3.3,7.4,11.2,14.8,19.1,17.9,4.8,1.9,7.6,2.3,17.7,2.3,6.7.1,13.8-.5,16-1.1,6.7-2.1,14.7-7.5,18.7-12.8,7.2-9.5,7.2-9.6,7.6-52.3l.3-38.2H5069v33.8c0,36.2-.6,42.1-5.2,48.4-3.4,4.8-10.9,7.8-19.8,7.8-12.8,0-18.8-2.9-23.3-11.4-2.1-4-2.2-5.1-2.5-41.4l-.3-37.2H5001Z"/><path d="M5234,447.36v51.5h15v-39.8l.1-39.7,5.9,15.5c3.3,8.5,10.1,26.3,15.3,39.5l9.3,24,7,.3,6.9.2,15.2-39.7,15.2-39.8.1,39.7v39.8h15v-103h-21.8l-10.6,27.7c-5.8,15.3-12.5,33.3-14.9,40s-4.5,12.5-4.9,12.8-1.7-2.9-3.3-7.2-8.3-22.5-15.2-40.6l-12.6-32.7H5234Z"/><path d="M5371,447.36v51.5h73.1l-.3-7.3-.3-7.2-28.2-.3-28.3-.2v-31l25.8-.2,25.7-.3v-14l-25.7-.3-25.8-.2v-27h57v-15h-73Z"/><path d="M5467,447.36v51.5h16v-80.5l5.8,9.6c3.1,5.2,14.5,23.4,25.2,40.2l19.5,30.7H5552v-103h-16.1l.3,40.3.3,40.3-8.5-14.1c-4.8-7.7-16.2-25.8-25.4-40.3l-16.8-26.2H5467Z"/><path d="M5573.2,403.06l.3,7.3,16.8.3,16.7.2v88h17v-88h33v-15h-84.1Z"/><path d="M325,399.46c-24.5,5.3-39,24.7-39,52.3,0,20.8,9.3,36.7,26.3,45.1,19.9,9.7,48.9,7.2,65.8-5.7,5.3-4.1,10.4-10.6,11.4-14.6l.7-2.7H369.7l-3.5,4c-11.1,13-36.1,14.3-49.9,2.6-3.8-3.2-8.9-13.2-10.2-19.9l-.8-4.7H392v-7.3c-.1-31.5-20.1-50.9-52.5-50.6A80.73,80.73,0,0,0,325,399.46ZM355.7,416c3.6,1.7,7.4,4.5,8.9,6.4,3.2,4.2,6.4,12.5,6.4,16.5v3H305.8l.6-3.2c1-4.9,5.4-14,8.4-17.1C323.8,412.06,342.3,409.46,355.7,416Z"/><path d="M633,399.26c-13.3,2.8-21.9,7.5-30.2,16.3-8.9,9.6-12.3,19.6-12.1,35.8q.3,39.15,37.5,49.2c9,2.5,33.8,2.4,42.8-.1,19.1-5.3,31.9-17.8,36.1-35.2,1.8-7.3,1.5-23.8-.4-31.3-4.5-16.9-16.9-28.7-35.2-33.6C663.2,398.06,641.4,397.56,633,399.26Zm30.6,15.1c16.2,4.8,23.9,16.7,23.8,36.5-.1,11.7-2.5,18.7-8.9,25.8-6.5,7.3-14.3,10.5-26.7,11-14.2.6-22.1-1.9-29.8-9.6s-10.3-14.4-10.4-27.2c0-11,1.1-15.3,5.6-23a31.3,31.3,0,0,1,17.7-13.4C641.1,412.56,657.3,412.46,663.6,414.36Z"/><path d="M945,399.46c-24.3,5.2-39,24.9-39,52.4,0,15.2,5.2,28.4,14.7,37,23.1,21.1,68.6,17.7,85.8-6.5,5.7-8,5.3-8.5-6.7-8.5H989.7l-3.5,4c-6.3,7.4-19.5,11.9-31.2,10.5-14.8-1.7-24.8-11-28.4-26.5l-1.4-6H1012v-7.8c-.1-25.6-14-43.7-37.5-48.7A79.09,79.09,0,0,0,945,399.46Zm27,14.6c9.4,2.7,17.5,12.6,18.7,22.8l.6,5H925.8l.7-3.3a46.91,46.91,0,0,1,7.1-15.4C940.7,413.86,957.8,409.86,972,414.06Z"/><path d="M1203,399.26c-13.2,2.9-20.9,6.8-28.7,14.6-12.1,12.1-16.9,31-12.8,50.3a46.36,46.36,0,0,0,13.6,24.2c6.3,6,12.6,9.4,22.9,12.2,9.1,2.5,33.8,2.5,42.9-.1,19.2-5.3,31.9-17.8,36.1-35.6,1.8-7.6,1.6-23.1-.4-30.9-4.3-16.8-16.8-28.7-35.1-33.6C1233.2,398.06,1211.4,397.56,1203,399.26Zm36.2,17.4c12.9,6.3,18.1,15.9,18.2,33.2,0,8.6-.4,11.5-2.2,16.1a34,34,0,0,1-16.9,18.1c-5.8,2.8-7.8,3.3-16.4,3.6-7.9.4-11.1,0-16.8-1.7a33.22,33.22,0,0,1-20.7-18.3c-2.6-5.7-2.9-7.4-2.9-16.8,0-12.2,1.7-18.4,7.1-25.4,7-9.2,16.1-12.7,32.4-12.3C1231.8,413.36,1233,413.56,1239.2,416.66Z"/><path d="M1717,399.46c-18.1,3.9-31,15.6-36.7,33.3-2,6.5-2.8,24.3-1.4,31.4a47.92,47.92,0,0,0,25.4,32.7c21.6,10.6,53.6,6.5,69.1-8.8,4.5-4.4,8.6-10.7,8.6-13.2,0-.6-3.8-1-10.2-1h-10.1l-3.5,4c-11.1,13-36.1,14.3-49.9,2.6-3.8-3.2-8.9-13.2-10.2-19.9l-.8-4.7H1784v-6.8c-.1-31.9-20.1-51.4-52.5-51.1A80.73,80.73,0,0,0,1717,399.46Zm30.7,16.5c3.6,1.7,7.4,4.5,8.9,6.4,3.2,4.2,6.4,12.5,6.4,16.5v3h-32.5c-26.3,0-32.5-.3-32.5-1.3,0-2,3.1-10.9,4.8-13.7C1711.2,413.06,1731.5,408.16,1747.7,416Z"/><path d="M1840.4,399.26c-15.9,3-28.4,11.9-31,21.9l-.6,2.7h10.6c10.2,0,10.6-.1,12.2-2.6,1-1.4,4-3.7,6.8-5.2,6.7-3.4,21.3-4.3,30-1.8,8,2.4,14,8.3,15.5,15.4,1.8,8.8,2.8,8.2-13.1,8.2-43.7,0-63.6,9.2-65.5,30-1.9,20.2,15.8,35,41.6,35,15.2,0,25.9-3.6,33.7-11.1,4-4,4.1-4,4.8-1.7a36,36,0,0,1,.6,6.5v4.3h18.5l-.3-36.3c-.2-27.6-.7-37.4-1.8-41.3-2.7-10-13.9-19.1-27.9-22.8C1866.1,398.16,1849.1,397.56,1840.4,399.26Zm44.2,59.8c-1.9,18.9-10.2,27.1-29.6,29.3-6.5.8-15.9-.7-20.9-3.3-7.2-3.7-10.4-14.9-6.2-21.8,4.9-8.1,16.2-11,43.5-11.3l13.9-.1Z"/><path d="M1977.4,398.86c-8.3,1.7-16.7,7.2-22.4,14.4l-3,3.9v-4c0-2.2-.3-6.1-.6-8.7l-.7-4.7-9.1.3c-5,.2-9,.6-8.8,1s.2,23.1.2,50.3v49.5h20v-28c0-16.9.4-30,1.1-33.2,2.7-12.6,10.6-22.4,20.3-25.3,13.7-4.1,23.4.8,27.7,14.2,2,6.3,2.2,9.3,2.7,39.5l.4,32.8h18.6l.4-29.8c.4-24.4.8-30.7,2.2-35.2,4.9-15.3,16.6-24.1,30.4-22.7,8.8.9,14.4,5.6,17.4,14.6.8,2.4,1.3,15,1.5,38.3l.4,34.8H2096v-33.5c0-20.7-.4-35.4-1.1-38.7-2.7-12.7-11.4-23.5-22.7-27.9-4.5-1.8-7.7-2.3-15.7-2.3-9.1-.1-10.6.2-16.5,3a40.31,40.31,0,0,0-17.1,15.1l-2.7,4.4-2.7-4.4c-3.5-6.1-10.5-12.3-17-15.3C1994.4,398.46,1984.1,397.36,1977.4,398.86Z"/><path d="M2154.6,399c-19.1,3.2-32.4,13.7-34.2,27.2-1.4,9.8,4.7,19.2,15.5,24.1,3.2,1.4,14.3,4.4,24.7,6.6,26.4,5.6,31.6,7.3,34.9,11.2,5.4,6.4,1,15.4-8.9,18.3-12,3.6-30.2,2.8-38.8-1.6a23.89,23.89,0,0,1-7.1-6.5l-3.1-4.5-10.1.3-10,.3.4,2.5c.6,4.3,4.8,11.5,8.7,15,9.4,8.2,23.6,11.6,44.9,10.7,25.6-1.1,38.3-6.5,44.6-19,2.6-5.1,3.5-13.8,1.9-19.5s-7.7-12.4-13.8-15c-2.6-1.1-14.8-4.2-27.2-6.7s-24.9-5.6-27.7-6.7c-12-4.4-12.6-14-1.4-19.6,5.3-2.6,6.3-2.7,20.1-2.7,14.1,0,14.7.1,19.6,2.8,2.9,1.6,5.7,4,6.5,5.3,1.2,2.3,1.7,2.4,12,2.4h10.8l-.8-2.8c-4.4-15.3-21.1-23.4-47.6-23.1A114.79,114.79,0,0,0,2154.6,399Z"/><path d="M1083,400.26a43.5,43.5,0,0,0-24.9,18.3l-3.1,4.6v-23.4l-8.7.3-8.8.3-.3,50.2-.2,50.3h21v-29.5c0-26.3.2-30,1.9-34.4,5.1-13.6,17.7-21.1,35.3-21.1h7.8v-17l-7.7.1A57.14,57.14,0,0,0,1083,400.26Z"/><path d="M1642,400.46c-9.1,2.5-18.1,9.4-24.4,18.8l-2.6,3.9v-23.4l-8.7.3-8.8.3-.3,50.2-.2,50.3h21v-29.5c0-27.7.1-29.8,2.2-35.2,2.8-7.5,9.7-14.3,17.5-17.4,4.1-1.5,8.7-2.4,15.6-2.7l9.7-.4v-16.8l-7.7.1A63.37,63.37,0,0,0,1642,400.46Z"/><path d="M719.5,406.06c.2.7,6.1,18.8,13,40.3s13.8,42.5,15.1,46.7l2.6,7.8h29.7l11.9-36.3c6.6-19.9,12.3-37.7,12.7-39.4,1-4.8,2.1-4.8,3.4,0,.6,2.3,6.4,20.3,12.8,40l11.7,35.7,15-.2,14.9-.3,15.3-47c8.4-25.9,15.3-47.3,15.3-47.8s-4.8-.7-10.7-.7H871.4l-10.8,35.2c-5.9,19.4-11.5,37.5-12.4,40.3l-1.5,5-2.4-8c-1.3-4.4-7-22.4-12.6-40l-10.2-32-15.2-.3-15.2-.3-9.5,29.3c-5.2,16.1-10.9,34.2-12.7,40.2l-3.3,10.9-1.2-3.9c-.7-2.2-5.3-17.2-10.3-33.4s-9.9-32.5-11.1-36.3l-2.1-6.7H730C721.7,404.86,719.2,405.16,719.5,406.06Z"/><path d="M3579,449.66c0,21.4.3,39.1.6,39.4.6.6,80.4-38.3,80.4-39.1s-78.5-39.1-79.9-39.1C3579.3,410.86,3579,422.56,3579,449.66Z"/><path d="M4779.4,480.16a61.54,61.54,0,0,0-.2,9.8l.3,8.4,4.4.3,4.3.3-.5,4.2c-.6,4.5-3.5,7.7-6.9,7.7-1.7,0-1.9.6-1.6,5.2l.3,5.3,3.5-.3c9.9-1,14.7-6.4,16.1-18a103.16,103.16,0,0,0,.7-15.7l-.3-8-9.8-.3C4782.2,478.86,4779.8,479.06,4779.4,480.16Z"/></svg>